<?xml version="1.0" encoding="utf-8"?>
<!DOCTYPE svg PUBLIC "-//W3C//DTD SVG 1.0//EN" "http://www.w3.org/TR/2001/REC-SVG-20010904/DTD/svg10.dtd">
<svg xmlns="http://www.w3.org/2000/svg" xml:space="preserve" xmlns:xlink="http://www.w3.org/1999/xlink" width="15" height="15" viewBox="0 0 15 15">
<desc></desc>
	<defs>
		<style>
			.cls-1 {fill:white; stroke:#9d9fa2; stroke-width:.14px;}
			.cls-2 {fill:#2e3192;}
			.cls-3 {fill:#231f20;}
			.cls-4 {fill:#ed1c24; stroke-width: 0px;}
		</style>
	</defs>
	<g>
		<path class="cls-4" d="m5.56,5.98v.42h1.04v.57h-1.04v.98h-.84v-2.54h3.07v.57h-2.23Z"/>
		<path class="cls-4" d="m6.99,7.95v-2.54h.84v1.95h1.11v.58h-1.95Z"/>
		<path class="cls-4" d="m10.32,7.95l-.21-.52h-.92l-.21.52h-.88l1.08-2.54h.99l1.09,2.54h-.93Zm-.66-1.78l-.26.7h.5l-.23-.7Z"/>
		<path class="cls-2" d="m4.39,10.54s-.74-.39-1.47-1.2c.29-.09.52-.35.53-.66.02-.4-.3-.74-.73-.76-.22,0-.43.08-.57.22-.36-.89-.36-1.73-.36-1.73-.06.5-.56,1.44-.52,2.47.05,1.52,1.59,3.55,1.59,3.55,0,0-.54-1.07-.44-1.68.11-.61,1.96-.2,1.96-.2Z"/>
		<path class="cls-2" d="m14.61,7.7c-.25-1.01-1.03-2.04-1.23-2.52,0,0,.26.71.24,1.55-.16-.07-.34-.1-.52-.06-.43.09-.69.48-.58.87.09.32.41.53.75.55-.54,1.07-1.41,1.73-1.41,1.73,0,0,1.83-.85,2.1-.28.28.57.03,1.72.03,1.72,0,0,.99-2.08.61-3.57Z"/>
		<path class="cls-2" d="m1.77,6.51s0-.05,0-.11c-.02.08,0,.11,0,.11ZM6.73,1.63s-1.49.18-2.79,1.07c0-.04,0-.09,0-.13-.11-.39-.56-.64-.99-.55-.43.09-.69.48-.58.87.09.31.39.52.72.55-.03.03-.07.06-.1.1-1.05,1.26-1.18,2.49-1.2,2.84.03-.13.12-.38.46-.82.24-.31.72-.69,1.09-.41.33.25.38,1.74.38,1.74,0,0,.12-1.3.48-1.79.36-.5,1.42-.16,1.42-.16,0,0-.47-.51-.59-1.27-.22-1.36,1.7-2.05,1.7-2.05Z"/>
		<path class="cls-2" d="m11.91,9.81s-1.22,1.09-3.13,1.39c.03-.09.07-.17.07-.27.03-.5-.38-.92-.9-.94-.52-.02-.97.37-1,.87,0,.14.03.28.08.4-1.85-.14-2.76-.78-2.76-.78,0,0,1.85,1.22,2.21,1.86.36.65-.5,2.27-.5,2.27,0,0,1-1.29,1.75-1.21.75.08,2.17,1.42,2.17,1.42,0,0-1.1-1.88-.49-2.55.61-.67,2.49-2.46,2.49-2.46Z"/>
		<path class="cls-4" d="m9.61,1.9c-.12-.39.15-.79.61-.88.46-.09.93.16,1.05.55.12.39-.15.79-.61.87-.46.09-.93-.16-1.05-.55h0Z"/>
		<path class="cls-4" d="m8.97,2.67c.09.14.16.29.2.47.17.75-.09,1.36-.09,1.36,0,0,.88-.59,1.42-.21.53.38,1.13,1.59,1.13,1.59,0,0-.15-.42-.25-.86-.25-.29-1.35-1.5-2.41-2.35Zm2.11-.18c-1.93-1.22-4.29-.87-4.29-.87,0,0,3.23-.05,5.68,2.57.02.02.05.03.07.05.65.52.83.97.83.97,0,0-.55-1.61-2.29-2.71Z"/>
		<path class="cls-2" d="m6.82,1.63s2.43-.08,5.36,2.59c-.55-.07-.62.37-.66.62-.55-.86-2.99-3.14-4.71-3.22Z"/>
		<path class="cls-3" d="m4.71,8.35h.27v.08h-.17v.1h.16v.08h-.16v.18h-.1v-.45Z"/>
		<path class="cls-3" d="m5.05,8.36s.08,0,.13,0c.06,0,.11,0,.14.04.03.02.04.05.04.09,0,.06-.04.1-.08.11h0s.05.04.06.08c.01.05.03.11.03.13h-.1s-.02-.05-.03-.1c-.01-.06-.03-.07-.07-.07h-.03v.18h-.1v-.44Zm.1.19h.04s.08-.03.08-.06-.03-.06-.07-.06c-.02,0-.04,0-.04,0v.12Z"/>
		<path class="cls-3" d="m5.54,8.68l-.03.11h-.1l.13-.45h.13l.14.45h-.11l-.03-.11h-.13Zm.11-.08l-.03-.09s-.01-.06-.02-.09h0s-.01.06-.02.09l-.03.09h.1Z"/>
		<path class="cls-3" d="m5.86,8.8v-.45h.11l.09.16s.05.1.07.15h0c0-.06,0-.12,0-.19v-.13h.09v.45h-.1l-.09-.17s-.05-.11-.08-.16h0c0,.06,0,.12,0,.2v.13h-.09Z"/>
		<path class="cls-3" d="m6.63,8.78s-.06.02-.11.02c-.15,0-.23-.1-.23-.22,0-.15.11-.24.24-.24.05,0,.09.01.11.02l-.02.08s-.05-.02-.08-.02c-.08,0-.14.05-.14.15,0,.09.05.15.14.15.03,0,.06,0,.08-.01v.08Z"/>
		<path class="cls-3" d="m6.79,8.35v.17h.16v-.17h.1v.45h-.1v-.19h-.16v.19h-.1v-.45h.1Z"/>
		<path class="cls-3" d="m7.24,8.35v.45h-.1v-.45h.1Z"/>
		<path class="cls-3" d="m7.33,8.69s.07.03.11.03c.05,0,.07-.02.07-.05,0-.03-.02-.04-.07-.06-.07-.03-.12-.07-.12-.13,0-.08.06-.13.16-.13.05,0,.09,0,.11.02l-.02.08s-.05-.02-.09-.02-.06.02-.06.04c0,.03.02.04.08.06.08.03.11.07.11.13,0,.07-.06.14-.17.14-.05,0-.1-.01-.12-.03l.02-.08Z"/>
		<path class="cls-3" d="m7.93,8.61h-.16v.11h.18v.08h-.28v-.45h.27v.08h-.17v.09h.16v.08Z"/>
		<path class="cls-3" d="m8.55,8.8s-.02-.02-.03-.03c-.03.02-.07.04-.12.04-.11,0-.15-.06-.15-.13,0-.06.03-.1.08-.13h0s-.03-.06-.03-.09c0-.06.04-.12.13-.12.07,0,.12.04.12.1,0,.05-.03.08-.09.11h0s.05.06.07.09c.02-.03.03-.07.04-.11h.09c-.01.07-.03.13-.07.17.02.03.05.06.08.09h-.11Zm-.13-.07s.05,0,.06-.02c-.03-.03-.06-.07-.1-.11-.02.01-.03.03-.03.06,0,.04.03.07.07.07h0Zm.01-.33s-.04.02-.04.05c0,.02,0,.04.03.06.03-.02.05-.04.05-.07,0-.02-.01-.04-.04-.04h0Z"/>
		<path class="cls-3" d="m8.98,8.35h.1v.36h.17v.08h-.27v-.45Z"/>
		<path class="cls-3" d="m9.4,8.35v.45h-.1v-.45h.1Z"/>
		<path class="cls-3" d="m9.81,8.78s-.06.02-.11.02c-.15,0-.23-.1-.23-.22,0-.15.11-.24.24-.24.05,0,.09.01.11.02l-.02.08s-.05-.02-.08-.02c-.08,0-.14.05-.14.15,0,.09.05.15.14.15.03,0,.06,0,.08-.01v.08Z"/>
		<path class="cls-3" d="m10.13,8.61h-.16v.11h.18v.08h-.28v-.45h.27v.08h-.17v.09h.16v.08Z"/>
		<path class="cls-3" d="m10.22,8.8v-.45h.11l.09.16s.05.1.07.15h0c0-.06,0-.12,0-.19v-.13h.09v.45h-.1l-.09-.17s-.05-.11-.08-.16h0c0,.06,0,.12,0,.2v.13h-.09Z"/>
		<path class="cls-3" d="m10.67,8.69s.07.03.11.03c.05,0,.07-.02.07-.05,0-.03-.02-.04-.07-.06-.07-.03-.12-.07-.12-.13,0-.08.06-.13.16-.13.05,0,.09,0,.11.02l-.02.08s-.05-.02-.09-.02-.06.02-.06.04c0,.03.02.04.08.06.08.03.11.07.11.13,0,.07-.06.14-.17.14-.05,0-.1-.01-.12-.03l.02-.08Z"/>
		<path class="cls-3" d="m11.27,8.61h-.16v.11h.18v.08h-.28v-.45h.27v.08h-.17v.09h.16v.08Z"/>
		<path class="cls-3" d="m6.15,9.48l-.03.11h-.1l.13-.45h.13l.14.45h-.11l-.03-.11h-.13Zm.11-.08l-.03-.09s-.01-.06-.02-.09h0s-.01.06-.02.09l-.03.09h.1Z"/>
		<path class="cls-3" d="m6.48,9.49s.07.03.11.03c.05,0,.07-.02.07-.05,0-.03-.02-.04-.07-.06-.07-.03-.12-.07-.12-.13,0-.08.06-.13.16-.13.05,0,.09,0,.11.02l-.02.08s-.05-.02-.09-.02-.06.02-.06.04c0,.03.02.04.08.06.08.03.11.07.11.13,0,.07-.06.14-.17.14-.05,0-.1-.01-.12-.03l.02-.08Z"/>
		<path class="cls-3" d="m6.83,9.49s.07.03.11.03c.05,0,.07-.02.07-.05,0-.03-.02-.04-.07-.06-.07-.03-.12-.07-.12-.13,0-.08.06-.13.16-.13.05,0,.09,0,.11.02l-.02.08s-.05-.02-.09-.02-.06.02-.06.04c0,.03.02.04.08.06.08.03.11.07.11.13,0,.07-.06.14-.17.14-.05,0-.1-.01-.12-.03l.02-.08Z"/>
		<path class="cls-3" d="m7.36,9.6c-.13,0-.2-.1-.2-.23,0-.13.08-.23.21-.23s.21.1.21.23c0,.15-.09.24-.21.24h0Zm0-.08c.07,0,.1-.06.1-.15,0-.08-.04-.15-.1-.15s-.11.07-.11.15.04.15.11.15h0Z"/>
		<path class="cls-3" d="m7.96,9.58s-.06.02-.11.02c-.15,0-.23-.1-.23-.22,0-.15.11-.24.24-.24.05,0,.09.01.11.02l-.02.08s-.05-.02-.08-.02c-.08,0-.14.05-.14.15,0,.09.05.15.14.15.03,0,.06,0,.08-.01v.08Z"/>
		<path class="cls-3" d="m8.12,9.14v.45h-.1v-.45h.1Z"/>
		<path class="cls-3" d="m8.31,9.48l-.03.11h-.1l.13-.45h.13l.14.45h-.11l-.03-.11h-.13Zm.11-.08l-.03-.09s-.01-.06-.02-.09h0s-.01.06-.02.09l-.03.09h.1Z"/>
		<path class="cls-3" d="m8.65,9.23h-.12v-.08h.33v.08h-.12v.36h-.1v-.36Z"/>
		<path class="cls-3" d="m9.02,9.14v.45h-.1v-.45h.1Z"/>
		<path class="cls-3" d="m9.29,9.6c-.13,0-.2-.1-.2-.23,0-.13.08-.23.21-.23s.21.1.21.23c0,.15-.09.24-.21.24h0Zm0-.08c.07,0,.1-.06.1-.15,0-.08-.04-.15-.1-.15s-.11.07-.11.15.04.15.11.15h0Z"/>
		<path class="cls-3" d="m9.57,9.59v-.45h.11l.09.16s.05.1.07.15h0c0-.06,0-.12,0-.19v-.13h.09v.45h-.1l-.09-.17s-.05-.11-.08-.16h0c0,.06,0,.12,0,.2v.13h-.09Z"/>
	</g>
</svg>
