<?xml version="1.0" encoding="utf-8"?>
<!-- Generator: Adobe Illustrator 25.4.1, SVG Export Plug-In . SVG Version: 6.00 Build 0)  -->
<svg version="1.1" id="Layer_1" xmlns="http://www.w3.org/2000/svg" xmlns:xlink="http://www.w3.org/1999/xlink" x="0px" y="0px"
	 viewBox="0 0 48 48" style="enable-background:new 0 0 48 48;" xml:space="preserve">
<style type="text/css">
	.st0{fill:#FFFFFF;}
</style>
<g>
	<g>
		<g>
			<path class="st0" d="M23.8,41V23.9c0-2.1-0.7-3.8-2.1-5.1c-1.4-1.3-3.2-2-5.4-2c-2.8,0-5.2,1.2-7,3.7c-1.8,2.3-2.7,5.1-2.7,8.4
				c-0.1,3,0.5,5.5,1.7,7.4c1.2,2.1,3,3.1,5.3,3.1c1.5,0,2.7-0.7,3.6-2l1.5,1.2c-1.3,1.8-3,2.8-5.1,2.8c-3,0-5.2-1.2-6.7-3.5
				c-1.5-2.2-2.2-5.2-2.2-8.9C4.8,25,5.9,21.7,8,19c2.2-2.8,4.9-4.2,8.3-4.2c1.4,0,2.7,0.2,3.8,0.7c1.1,0.4,2.1,1.1,3,1.9
				c0.8,0.8,1.5,1.7,1.9,2.8c0.4,1.1,0.7,2.3,0.7,3.6V41H23.8z"/>
			<path class="st0" d="M28.2,9.4c0,0.7-0.3,1.4-0.8,1.9c-0.6,0.5-1.2,0.8-1.9,0.8c-0.7,0-1.4-0.3-1.9-0.8c-0.6-0.5-0.8-1.2-0.8-1.9
				c0-0.7,0.3-1.4,0.8-1.9c0.6-0.6,1.2-0.8,1.9-0.8c0.7,0,1.4,0.3,1.9,0.8C27.9,8,28.2,8.6,28.2,9.4z M26.7,9.4
				c0-0.9-0.4-1.3-1.3-1.3C24.5,8,24,8.5,24,9.4c0,0.9,0.4,1.3,1.3,1.3C26.3,10.7,26.7,10.3,26.7,9.4z M41.4,41V24.4
				c0-2.4-0.6-4.3-1.8-5.7c-1.2-1.4-3-2.1-5.3-2.1c-2.1,0-3.7,0.5-5,1.5v-2c1.7-0.9,3.4-1.3,5.1-1.3c2.9,0,5.2,0.9,6.8,2.6
				c1.4,1.6,2.1,3.7,2.1,6.4V41H41.4z"/>
		</g>
	</g>
</g>
</svg>
