<?xml version="1.0" encoding="utf-8"?>
<!-- Generator: Adobe Illustrator 25.4.1, SVG Export Plug-In . SVG Version: 6.00 Build 0)  -->
<svg version="1.1" id="Layer_1" xmlns="http://www.w3.org/2000/svg" xmlns:xlink="http://www.w3.org/1999/xlink" x="0px" y="0px"
	 viewBox="0 0 48 48" style="enable-background:new 0 0 48 48;" xml:space="preserve">
<path d="M33.1,13.7h-1.2c-0.3-2.6-2.1-7.1-7.9-7.1h-0.2c-5.7,0-7.6,4.4-7.9,7.1h-1.2c-2.6,0-4.7,2.1-4.7,4.7v18.2
	c0,2.6,2.1,4.7,4.7,4.7h18.2c2.6,0,4.7-2.1,4.7-4.7V18.4C37.8,15.8,35.7,13.7,33.1,13.7z M23.9,8.8h0.2c4.6,0,5.5,3.6,5.7,4.9H18.2
	C18.4,12.4,19.3,8.8,23.9,8.8z M35.7,36.6c0,1.4-1.2,2.6-2.6,2.6H14.9c-1.4,0-2.6-1.2-2.6-2.6V18.4c0-1.4,1.2-2.6,2.6-2.6h18.2
	c1.4,0,2.6,1.2,2.6,2.6C35.7,18.4,35.7,36.6,35.7,36.6z"/>
</svg>
